<svg viewBox="0 0 1939.35 567.87" xmlns="http://www.w3.org/2000/svg"><g transform="translate(-54.58 -56.36)"><path d="m203.09 192.37a143.27 143.27 0 0 1 57.46 11.63 148 148 0 0 1 78.78 79.06 145.56 145.56 0 0 1 11.67 57.8 143.59 143.59 0 0 1 -11.62 57.54 148.85 148.85 0 0 1 -78.78 78.77 143.43 143.43 0 0 1 -57.46 11.6q-36.89 0-67.75-15.87a141.32 141.32 0 0 1 -50.69-43v194.33h-30.12v-283.37a145.56 145.56 0 0 1 11.62-57.81 147.29 147.29 0 0 1 79.05-79.05 145.91 145.91 0 0 1 57.84-11.63zm0 30a115.4 115.4 0 0 0 -46.49 9.34 117.49 117.49 0 0 0 -62.6 62.96 116.27 116.27 0 0 0 -9.31 46.19 114.2 114.2 0 0 0 9.31 45.91 123.42 123.42 0 0 0 25.23 37.68 116.76 116.76 0 0 0 37.37 25.55 115.59 115.59 0 0 0 46.49 9.36 114.21 114.21 0 0 0 45.91-9.36 120.24 120.24 0 0 0 63.18-63.19 114.07 114.07 0 0 0 9.37-45.91 118.07 118.07 0 0 0 -34.89-83.9 123.85 123.85 0 0 0 -37.66-25.24 114 114 0 0 0 -45.91-9.34z" fill="#59595a"/><path d="m1919.67 56.36h29.47v357.05a44.52 44.52 0 0 0 44.79 44.76v29.47a74.84 74.84 0 0 1 -28.93-5.64 70.55 70.55 0 0 1 -23.52-15.89 79.5 79.5 0 0 1 -15.87-23.8 71.22 71.22 0 0 1 -5.95-28.89z" fill="#59595a"/><path d="m1610.82 316.6a115.27 115.27 0 0 1 7.08-23.06 117.52 117.52 0 0 1 62.63-62.91 115.44 115.44 0 0 1 46.49-9.34 113.63 113.63 0 0 1 45.85 9.34 122.89 122.89 0 0 1 37.72 25.23 117.51 117.51 0 0 1 32.58 60.74h29.83a143.31 143.31 0 0 0 -9.71-34.68 148 148 0 0 0 -78.77-79.06 148.15 148.15 0 0 0 -115 0 148 148 0 0 0 -78.77 79.06 143.31 143.31 0 0 0 -9.75 34.68z" fill="#ab2c40"/><path d="m1842.57 365.14a113 113 0 0 1 -6.47 20.5 120.19 120.19 0 0 1 -63.23 63.19 113.79 113.79 0 0 1 -45.85 9.34 116.54 116.54 0 0 1 -83.89-34.85 123.42 123.42 0 0 1 -25.23-37.68 112.19 112.19 0 0 1 -6.47-20.5h-30.1a140.33 140.33 0 0 0 9.36 32.1 148.8 148.8 0 0 0 78.77 78.8 148.39 148.39 0 0 0 115 0 148.8 148.8 0 0 0 78.77-78.8 140.33 140.33 0 0 0 9.36-32.1z" fill="#59595a"/><path d="m932.38 316.6a114 114 0 0 1 7.17-23.6 116.14 116.14 0 0 1 25.45-37.72 123.39 123.39 0 0 1 37.73-25.2 113.5 113.5 0 0 1 45.89-9.37 115.62 115.62 0 0 1 46.16 9.37 116.18 116.18 0 0 1 62.92 62.92 113.38 113.38 0 0 1 7.15 23.64h30.4a143.33 143.33 0 0 0 -9.78-35.24 147.35 147.35 0 0 0 -79-79.07 145.86 145.86 0 0 0 -57.79-11.6 143.58 143.58 0 0 0 -57.52 11.6 148.08 148.08 0 0 0 -78.77 79.07 142.91 142.91 0 0 0 -9.79 35.24z" fill="#ab2c40"/><path d="m1164 365.14a110.12 110.12 0 0 1 -6.3 19.93 123.22 123.22 0 0 1 -25.18 37.68 118.24 118.24 0 0 1 -83.89 34.86 113.5 113.5 0 0 1 -45.89-9.36 119.78 119.78 0 0 1 -63.19-63.18 111 111 0 0 1 -6.32-19.93h-30.16a140.18 140.18 0 0 0 9.27 31.55 148.7 148.7 0 0 0 78.77 78.77 143.26 143.26 0 0 0 57.52 11.63c24.58 0 47.09-5.31 67.75-15.87a142.45 142.45 0 0 0 50.69-43.08v52.7h30v-115.7z" fill="#59595a"/><path d="m657.35 365.14a112.51 112.51 0 0 1 -6.29 19.93 122.47 122.47 0 0 1 -25.23 37.68 116.83 116.83 0 0 1 -37.68 25.5 115.62 115.62 0 0 1 -46.15 9.36 113.91 113.91 0 0 1 -45.94-9.36 120.24 120.24 0 0 1 -63.19-63.18 111.65 111.65 0 0 1 -6.28-19.93h-30.2a140.7 140.7 0 0 0 9.27 31.55 148.67 148.67 0 0 0 78.78 78.77 143.56 143.56 0 0 0 57.56 11.63q36.79 0 67.7-15.87a142.93 142.93 0 0 0 50.73-43.08v52.7h30v-115.7z" fill="#59595a"/><path d="m425.73 316.6a115.77 115.77 0 0 1 7.13-23.6 117.06 117.06 0 0 1 25.51-37.68 122.56 122.56 0 0 1 37.68-25.2 113.91 113.91 0 0 1 45.95-9.41 115.62 115.62 0 0 1 46.16 9.37 116.61 116.61 0 0 1 62.9 62.92 115.18 115.18 0 0 1 7.14 23.64h30.4a145.08 145.08 0 0 0 -9.77-35.24 147.35 147.35 0 0 0 -79.05-79.07 145.86 145.86 0 0 0 -57.78-11.64 143.88 143.88 0 0 0 -57.56 11.6 148.06 148.06 0 0 0 -78.78 79.07 143.79 143.79 0 0 0 -9.79 35.24z" fill="#ab2c40"/><g fill="#59595a"><path d="m1524.05 268.92a147.27 147.27 0 0 0 -25.14-33.75 149.65 149.65 0 0 0 -47.32-31.75 146.25 146.25 0 0 0 -57.84-11.6q-36.26 0-67.15 16.14a150.64 150.64 0 0 0 -51.29 43.35v-194.37h-29.47v285.68c0 80.75 66.87 146.21 149.36 146.21s149.36-65.46 149.36-146.21a143 143 0 0 0 -20.51-73.7zm-130 190.71a119.55 119.55 0 1 1 119.55-119.54 119.54 119.54 0 0 1 -119.55 119.54z"/><path d="m740.52 332.88v.24 153.23h30v-151.11c0-.9 0-1.8 0-2.66.03-61.78 50.42-111.58 112.19-111.58v-30.31a142.19 142.19 0 0 0 -142.19 142.19z"/></g></g></svg>